<svg width="32" height="32" viewBox="0 0 32 32" fill="none" xmlns="http://www.w3.org/2000/svg">
<rect width="32" height="32" rx="10" fill="#DEDBCE"/>
<path d="M8.36364 19.9091C7.16364 19.9091 6.13636 19.4818 5.28182 18.6273C4.42727 17.7727 4 16.7455 4 15.5455C4 14.3455 4.42727 13.3182 5.28182 12.4636C6.13636 11.6091 7.16364 11.1818 8.36364 11.1818C9.56364 11.1818 10.5909 11.6091 11.4455 12.4636C12.3 13.3182 12.7273 14.3455 12.7273 15.5455C12.7273 16.7455 12.3 17.7727 11.4455 18.6273C10.5909 19.4818 9.56364 19.9091 8.36364 19.9091ZM8.36364 17.7273C8.96364 17.7273 9.47745 17.5135 9.90509 17.0858C10.3327 16.6582 10.5462 16.1447 10.5455 15.5455C10.5455 14.9455 10.3316 14.4316 9.904 14.004C9.47636 13.5764 8.96291 13.3629 8.36364 13.3636C7.76364 13.3636 7.24982 13.5775 6.82218 14.0051C6.39455 14.4327 6.18109 14.9462 6.18182 15.5455C6.18182 16.1455 6.39564 16.6593 6.82327 17.0869C7.25091 17.5145 7.76436 17.728 8.36364 17.7273ZM21.4545 22.0909C19.6364 22.0909 18.0909 21.4545 16.8182 20.1818C15.5455 18.9091 14.9091 17.3636 14.9091 15.5455C14.9091 13.7273 15.5455 12.1818 16.8182 10.9091C18.0909 9.63636 19.6364 9 21.4545 9C23.2727 9 24.8182 9.63636 26.0909 10.9091C27.3636 12.1818 28 13.7273 28 15.5455C28 17.3636 27.3636 18.9091 26.0909 20.1818C24.8182 21.4545 23.2727 22.0909 21.4545 22.0909Z" fill="#888888"/>
</svg>
